HIERARCHY
	ROOT Hips
	{
		OFFSET 0 0 0 
		CHANNELS 6 Xposition Yposition Zposition Zrotation Xrotation Yrotation
		JOINT LHipJoint
		{
			OFFSET 0 0 0 
			CHANNELS 3 Zrotation Xrotation Yrotation
			JOINT LeftUpLeg
			{
				OFFSET 0.0783705 -0.0912565 0.0336595 
				CHANNELS 3 Zrotation Xrotation Yrotation
				JOINT LeftLeg
				{
					OFFSET 0.117854 -0.323802 0 
					CHANNELS 3 Zrotation Xrotation Yrotation
					JOINT LeftFoot
					{
						OFFSET 0.135318 -0.371784 0 
						CHANNELS 3 Zrotation Xrotation Yrotation
						JOINT LeftToeBase
						{
							OFFSET 0.0102135 -0.028061 0.104268 
							CHANNELS 3 Zrotation Xrotation Yrotation
							End Site
							{
								OFFSET 0 -0 0.0542675
							}
						}
					}
				}
			}
		}
		JOINT RHipJoint
		{
			OFFSET 0 0 0 
			CHANNELS 3 Zrotation Xrotation Yrotation
			JOINT RightUpLeg
			{
				OFFSET -0.075711 -0.0912565 0.0336595 
				CHANNELS 3 Zrotation Xrotation Yrotation
				JOINT RightLeg
				{
					OFFSET -0.124412 -0.341819 0 
					CHANNELS 3 Zrotation Xrotation Yrotation
					JOINT RightFoot
					{
						OFFSET -0.135017 -0.370955 0 
						CHANNELS 3 Zrotation Xrotation Yrotation
						JOINT RightToeBase
						{
							OFFSET -0.009875 -0.0271315 0.111076 
							CHANNELS 3 Zrotation Xrotation Yrotation
							End Site
							{
								OFFSET -0 -0 0.0574575
							}
						}
					}
				}
			}
		}
		JOINT LowerBack
		{
			OFFSET 0 0 0 
			CHANNELS 3 Zrotation Xrotation Yrotation
			JOINT Spine
			{
				OFFSET -0.0007835 0.106437 -0.007921 
				CHANNELS 3 Zrotation Xrotation Yrotation
				JOINT Spine1
				{
					OFFSET 0.003049 0.106663 -0.0005215 
					CHANNELS 3 Zrotation Xrotation Yrotation
					JOINT Neck
					{
						OFFSET 0 0 0 
						CHANNELS 3 Zrotation Xrotation Yrotation
						JOINT Neck1
						{
							OFFSET -0.00252 0.089216 0.0066935 
							CHANNELS 3 Zrotation Xrotation Yrotation
							JOINT Head
							{
								OFFSET -9e-005 0.08844 -0.0166515 
								CHANNELS 3 Zrotation Xrotation Yrotation
								End Site
								{
									OFFSET 0.000367 0.0906245 -0.0063595
								}
							}
						}
					}
					JOINT LeftShoulder
					{
						OFFSET 0 0 0 
						CHANNELS 3 Zrotation Xrotation Yrotation
						JOINT LeftArm
						{
							OFFSET 0.1861 0.047094 -0.0271585 
							CHANNELS 3 Zrotation Xrotation Yrotation
							JOINT LeftForeArm
							{
								OFFSET 0.257301 -0 0 
								CHANNELS 3 Zrotation Xrotation Yrotation
								JOINT LeftHand
								{
									OFFSET 0.182226 -0 -0 
									CHANNELS 3 Zrotation Xrotation Yrotation
									JOINT LeftFingerBase
									{
										OFFSET 0 0 0 
										CHANNELS 3 Zrotation Xrotation Yrotation
										JOINT LFingers
										{
											OFFSET 0.028114 -0 0 
											CHANNELS 3 Zrotation Xrotation Yrotation
											End Site
											{
												OFFSET 0.022666 -0 0
											}
										}
									}
									JOINT LThumb
									{
										OFFSET 0 0 0 
										CHANNELS 3 Zrotation Xrotation Yrotation
										End Site
										{
											OFFSET 0.0230125 -0 0.0230125
										}
									}
								}
							}
						}
					}
					JOINT RightShoulder
					{
						OFFSET 0 0 0 
						CHANNELS 3 Zrotation Xrotation Yrotation
						JOINT RightArm
						{
							OFFSET -0.165127 0.0613395 -0.0234705 
							CHANNELS 3 Zrotation Xrotation Yrotation
							JOINT RightForeArm
							{
								OFFSET -0.266957 -0 0 
								CHANNELS 3 Zrotation Xrotation Yrotation
								JOINT RightHand
								{
									OFFSET -0.178239 -0 -0 
									CHANNELS 3 Zrotation Xrotation Yrotation
									JOINT RightFingerBase
									{
										OFFSET 0 0 0 
										CHANNELS 3 Zrotation Xrotation Yrotation
										JOINT RFingers
										{
											OFFSET -0.0428735 -0 0 
											CHANNELS 3 Zrotation Xrotation Yrotation
											End Site
											{
												OFFSET -0.034566 -0 0
											}
										}
									}
									JOINT RThumb
									{
										OFFSET 0 0 0 
										CHANNELS 3 Zrotation Xrotation Yrotation
										End Site
										{
											OFFSET -0.0350935 -0 0.0350935
										}
									}
								}
							}
						}
					}
				}
			}
		}
	}
MOTION
Frames:	10
Frame Time:	0.0166667
-0.59396 0.86467 1.24444 -0.212841 4.20038 -86.2698 -0 0 -0 -14.4574 -10.94 -21.5428 -3.06433 29.1881 11.731 -0.471066 6.00557 -36.644 -0.0156547 2.21778 0.807605 -0 0 -0 20.4847 -13.9248 16.5359 6.31309 39.5046 -17.4626 5.1259 -18.5493 18.3404 0.752912 -15.1519 5.65624 -4.16649 9.25857 3.16913 1.43747 2.64759 3.79446 3.37373 -2.77762 1.8696 -5.15414 -12.9337 0.357264 1.37032 29.6316 0.77173 1.66428 11.8046 -0.311283 -0 0 -0 -84.8783 -0.250108 12.7193 14.0442 -3.1096 -24.8546 0 -1.7665 0 16.4021 10.1573 30.9263 -7.125 0 0 -6.77775 -2.09938 62.1306 -0 0 -0 88.8624 24.5055 -11.1342 -24.0526 -10.0623 44.9055 -0 15.2585 -0 -15.4243 -0.475685 1.72356 7.125 0 -0 10.2848 3.14055 -28.1997 
-0.59345 0.86435 1.2382 -0.381213 4.8193 -84.5097 -0 0 -0 -13.4693 -10.9787 -22.6223 -3.03427 29.0612 11.6692 0.760991 7.83825 -37.1286 -0.0816597 5.06028 1.8469 -0 0 -0 21.3911 -13.4647 15.6791 6.08345 38.9325 -17.0993 5.2372 -18.386 18.6946 0.552548 -13.0354 4.83385 -2.55139 9.33333 2.7627 1.53515 2.7224 3.40144 2.6226 -2.62439 1.66365 -5.58237 -11.9538 0.710304 1.35813 28.9124 1.33696 1.84628 11.2991 -0.0841307 -0 0 -0 -85.1448 -1.27198 13.1832 13.9344 -3.05912 -24.6514 0 -1.382 0 15.5872 9.62058 30.9251 -7.125 0 0 -7.67569 -2.34896 61.9149 -0 0 -0 88.9859 26.6113 -11.2065 -24.3656 -10.3732 45.6082 -0 11.7559 -0 -17.123 -0.0368999 0.1196 7.125 0 -0 8.7968 2.40263 -29.8426 
-0.59274 0.864115 1.23052 -0.682159 4.71317 -83.5878 -0 0 -0 -12.9841 -10.9386 -22.5573 -2.97778 28.8205 11.5524 1.52321 8.95258 -37.7075 -0.121144 6.16058 2.25151 -0 0 -0 21.761 -12.8833 15.2938 5.92038 38.5158 -16.8387 5.27869 -18.7625 18.6447 0.387632 -10.9562 4.04036 -1.96733 9.73455 3.09511 1.10296 2.82275 3.8713 1.77564 -2.69903 1.8924 -4.50153 -12.1003 0.773589 1.30915 28.8099 1.21866 1.59806 11.2975 -0.0135628 -0 0 -0 -84.5199 -0.645561 13.3543 13.799 -2.99741 -24.4012 0 -1.6086 0 15.0342 9.31841 31.0842 -7.125 0 0 -8.24952 -2.53066 61.9377 -0 0 -0 89.302 26.2298 -11.2648 -24.5443 -10.5539 46.0121 -0 13.4434 -0 -15.9486 -0.41137 1.43924 7.125 0 -0 9.81794 2.94087 -28.4862 
-0.59208 0.863975 1.22257 -0.318966 4.80399 -82.9057 -0 0 -0 -12.3945 -11.4789 -22.8127 -2.89735 28.4729 11.3847 1.89455 9.46774 -37.9228 -0.116872 6.05063 2.21102 -0 0 -0 22.2992 -13.0921 15.0926 5.78435 38.1607 -16.6194 5.21144 -18.877 18.4277 0.25809 -8.96403 3.29134 -1.47758 9.24726 3.35961 0.820226 2.90902 4.26941 1.20586 -2.30107 2.08778 -3.60834 -12.92 0.969343 1.19206 29.221 1.37294 1.44188 11.6233 0.137112 -0 0 -0 -84.2143 -0.727716 13.2772 13.6729 -2.94056 -24.1683 0 -1.4691 0 14.821 9.14031 30.9782 -7.125 0 0 -8.50813 -2.58381 61.7701 -0 0 -0 89.9701 25.7686 -10.3767 -24.6359 -10.6475 46.2202 -0 14.068 -0 -14.5136 -0.721049 2.78312 7.125 0 -0 11.0493 3.60922 -27.1322 
-0.590685 0.86395 1.21616 -0.277632 4.84001 -81.7414 -0 0 -0 -11.9808 -11.7112 -23.3333 -2.81642 28.1158 11.2139 2.70615 10.5245 -37.9431 -0.118349 6.08904 2.22516 -0 0 -0 22.4782 -13.2119 14.142 5.62796 37.7442 -16.3651 5.27698 -19.3222 18.4192 0.161226 -7.09947 2.59813 0.0547458 9.19829 3.72243 0.622928 2.90752 4.8847 0.0955644 -2.14513 2.39408 -4.94484 -12.4164 0.646727 2.41949 29.1584 0.870408 2.00309 11.4956 -0.0757189 -0 0 -0 -84.5105 0.188823 13.3911 13.5651 -2.89245 -23.9695 0 -1.7337 0 14.8449 9.14173 30.9392 -7.125 0 0 -8.49025 -2.57266 61.7354 -0 0 -0 89.7087 23.0904 -9.85636 -24.6304 -10.6418 46.2077 -0 15.4789 -0 -12.9183 -1.16276 5.05584 7.125 0 -0 12.3082 4.58598 -24.8743 
-0.589605 0.864185 1.2059 0.622142 4.8663 -82.8817 -0 0 -0 -10.9864 -12.5951 -22.2676 -2.66691 27.4389 10.8932 2.03112 9.60361 -37.4913 -0.00438479 1.16927 0.425589 -0 0 -0 23.38 -13.9597 15.2821 5.54223 37.512 -16.2247 5.20322 -19.6559 18.11 0.108825 -5.83928 2.13317 -0.122508 8.46375 4.21792 0.193198 2.72698 5.52758 -0.264874 -1.89866 2.72119 -3.88343 -12.5547 1.30706 2.01479 28.8849 1.70131 1.8465 11.391 0.37417 -0 0 -0 -84.0727 -0.714653 13.7068 13.5709 -2.89504 -23.9802 0 -1.7873 0 14.8909 9.24868 31.1496 -7.125 0 0 -8.39301 -2.58041 61.969 -0 0 -0 90.4444 24.25 -9.21145 -24.7315 -10.746 46.4383 -0 14.4337 -0 -14.2989 -0.889551 3.48582 7.125 0 -0 11.191 3.81259 -26.4231 
-0.588195 0.863895 1.19813 0.810864 3.97925 -81.7775 -0 0 -0 -11.4852 -12.6735 -22.2561 -2.45214 26.4208 10.4188 3.86533 11.99 -37.1927 -0.0262454 2.87522 1.04742 -0 0 -0 22.6627 -14.4087 14.3794 5.5482 37.5282 -16.2345 4.90321 -21.1201 16.8921 0.188309 -7.66819 2.80894 -1.00159 8.40253 4.27133 0.39576 2.87309 5.52987 0.445634 -1.81775 2.71967 -3.84105 -13.0049 1.53252 1.15761 29.1379 2.29782 1.68813 11.5727 0.540692 -0 0 -0 -85.2032 -0.50659 13.9131 13.4809 -2.85518 -23.8144 0 -2.5028 0 15.1843 9.26563 30.6791 -7.125 0 0 -8.17405 -2.44633 61.5497 -0 0 -0 89.5354 25.3182 -8.96623 -24.939 -10.962 46.9136 -0 14.3654 -0 -14.4595 -0.846811 3.28016 7.125 0 -0 11.0606 3.72222 -26.6283 
-0.58563 0.86408 1.19007 0.813291 3.02216 -80.5554 -0 0 -0 -12.132 -12.6772 -22.4543 -2.29081 25.618 10.051 5.84064 14.5309 -36.8216 -0.121447 6.16816 2.25436 -0 0 -0 21.8945 -14.8334 13.3195 5.55337 37.5423 -16.2429 4.53641 -22.0861 15.7538 0.322297 -10.0037 3.68104 -1.73729 8.96474 4.41615 0.475909 2.9782 5.64785 0.876749 -2.09394 2.77435 -3.83153 -13.4333 1.51084 0.544235 29.4111 2.48148 1.52649 11.7738 0.545987 -0 0 -0 -85.9846 -0.722318 13.867 13.3641 -2.80405 -23.5997 0 -1.9223 0 14.4636 8.84476 30.7993 -7.125 0 0 -8.94098 -2.66916 61.4887 -0 0 -0 89.0079 25.208 -8.50258 -25.069 -11.0991 47.213 -0 15.5227 -0 -14.2773 -0.948595 3.72231 7.125 0 -0 11.1913 3.86555 -26.1836 
-0.582555 0.86464 1.18184 1.10111 3.21486 -79.8742 -0 0 -0 -11.5698 -13.3869 -22.375 -2.20689 25.1862 9.85551 6.22975 15.0427 -36.6052 -0.225077 8.37661 3.07221 -0 0 -0 22.388 -15.8209 12.6584 5.58707 37.6339 -16.2982 4.5157 -21.9977 15.7249 0.37823 -10.8247 3.99062 -1.41031 9.20031 4.62107 0.788644 2.958 5.95206 0.962116 -2.24787 2.92475 -4.14774 -13.5631 1.70712 0.452089 29.2808 2.89883 1.64989 11.732 0.69788 -0 0 -0 -86.9453 -0.847465 13.946 13.4531 -2.84303 -23.7633 0 -1.6485 0 14.303 8.80599 30.9834 -7.125 0 0 -9.07802 -2.73715 61.6399 -0 0 -0 88.3032 25.5675 -8.05595 -25.2343 -11.2755 47.5959 -0 15.5694 -0 -14.2496 -1.10581 4.34571 7.125 0 -0 11.163 3.9956 -25.5516 
-0.578435 0.865205 1.1738 1.40788 2.85701 -79.041 -0 0 -0 -11.776 -14.0865 -22.5032 -2.15937 24.937 9.7434 6.629 15.7077 -35.2585 -0.252399 8.8664 3.25483 -0 0 -0 22.2237 -16.9304 11.9897 5.68937 37.9087 -16.4652 4.49789 -21.589 15.7814 0.315732 -9.90265 3.64305 -1.21235 9.79846 4.85083 0.624638 2.90014 6.25945 0.582261 -2.59596 3.07616 -3.81109 -13.677 1.87169 0.227153 29.073 3.13996 1.55947 11.6741 0.829357 -0 0 -0 -87.3034 -1.10722 13.8358 13.547 -2.8845 -23.9364 0 -0.7449 0 14.1235 8.55537 30.5928 -7.125 0 0 -9.35921 -2.74184 61.1845 -0 0 -0 88.3165 25.5134 -7.67943 -25.4236 -11.4803 48.0375 -0 15.4259 -0 -14.6781 -0.988261 3.76706 7.125 0 -0 10.8211 3.74623 -26.1282 
